{"title":"Clive Barker's Book of Blood-DVDrip[2008]","uid":4897333,"size":894596452,"categoryP":"video","categoryS":"movies","magnet":"?xt=urn:btih:355a2aebc5f9d121cb758901e507b902fb9d3b58&amp;dn=Clive+Barker%5C%27s+Book+of+Blood-DVDrip%5B2008%5D&amp;tr=udp%3A%2F%2Ftracker.openbittorrent.com%3A80&amp;tr=udp%3A%2F%2Fopen.demonii.com%3A1337&amp;tr=udp%3A%2F%2Ftracker.coppersurfer.tk%3A6969&amp;tr=udp%3A%2F%2Fexodus.desync.com%3A6969","seeders":4,"leechers":1,"uploader":"maddhadder","files":-1,"time":1242415803,"description":" &lt;a href=&quot;http://www.imdb.com/title/tt1169809/&quot; rel=&quot;nofollow&quot; target=&quot;_NEW&quot;&gt;http://www.imdb.com/title/tt1169809/&lt;/a&gt;\n\nFormat                           : AVI\nFormat/Info                      : Audio Video Interleave\nFile size                        : 853 MiB\nDuration                         : 1h 40mn\nOverall bit rate                 : 1 187 Kbps\nWriting application              : FairUse Wizard - http://fairusewizard.com\nWriting library                  : VirtualDub build 30009/release\n\nVideo\nFormat                           : MPEG-4 Visual\nFormat profile                   : Streaming Video@L1\nFormat settings, BVOP            : Yes\nFormat settings, QPel            : No\nFormat settings, GMC             : No warppoints\nFormat settings, Matrix          : Default\nCodec ID                         : XVID\nCodec ID/Hint                    : XviD\nDuration                         : 1h 40mn\nBit rate                         : 1 050 Kbps\nWidth                            : 528 pixels\nHeight                           : 384 pixels\nDisplay aspect ratio             : 1.375\nFrame rate                       : 23.976 fps\nResolution                       : 24 bits\nColorimetry                      : 4:2:0\nScan type                        : Progressive\nBits/(Pixel*Frame)               : 0.216\nStream size                      : 755 MiB (88%)\nWriting library                  : XviD 1.2.0.dev47 (UTC 2006-11-01)\n\nAudio\nFormat                           : MPEG Audio\nFormat version                   : Version 1\nFormat profile                   : Layer 3\nCodec ID                         : 55\nCodec ID/Hint                    : MP3\nDuration                         : 1h 40mn\nBit rate mode                    : Constant\nBit rate                         : 128 Kbps\nMinimum bit rate                 : 128 Kbps\nChannel(s)                       : 2 channels\nSampling rate                    : 48.0 KHz\nResolution                       : 16 bits\nStream size                      : 91.8 MiB (11%)\nAlignment                        : Aligned on interleaves\nInterleave, duration             : 42 ms (1.00 video frame)\nInterleave, preload duration     : 504 ms\nWriting library                  : LAME3.97 \nEncoding settings                : CBR","torrent":{"xt":"urn:btih:355a2aebc5f9d121cb758901e507b902fb9d3b58","amp;dn":"Clive+Barker%5C%27s+Book+of+Blood-DVDrip%5B2008%5D","amp;tr":["udp%3A%2F%2Ftracker.openbittorrent.com%3A80","udp%3A%2F%2Fopen.demonii.com%3A1337","udp%3A%2F%2Ftracker.coppersurfer.tk%3A6969","udp%3A%2F%2Fexodus.desync.com%3A6969"],"infoHash":"355a2aebc5f9d121cb758901e507b902fb9d3b58","infoHashBuffer":{"type":"Buffer","data":[53,90,42,235,197,249,209,33,203,117,137,1,229,7,185,2,251,157,59,88]},"announce":[],"urlList":[]}}